<?xml version="1.0" encoding="UTF-8"?>
<svg version="1.1" xmlns="http://www.w3.org/2000/svg" width="1024" height="512">
<path d="M0 0 C337.92 0 675.84 0 1024 0 C1024 168.96 1024 337.92 1024 512 C686.08 512 348.16 512 0 512 C0 343.04 0 174.08 0 0 Z " fill="#3B0D88" transform="translate(0,0)"/>
<path d="M0 0 C0 14.52 0 29.04 0 44 C-11.24105287 48.49642115 -11.24105287 48.49642115 -17.19140625 50.15625 C-18.16956299 50.43216476 -18.16956299 50.43216476 -19.16748047 50.71365356 C-21.29785731 51.31383063 -23.43016451 51.90682363 -25.5625 52.5 C-28.65707597 53.36947492 -31.75045794 54.24315729 -34.84375 55.1171875 C-36.05461021 55.45863297 -36.05461021 55.45863297 -37.28993225 55.80697632 C-43.65274982 57.60590678 -50.00045273 59.45381034 -56.34375 61.3203125 C-57.28169907 61.59619202 -58.21964813 61.87207153 -59.1860199 62.15631104 C-62.8990273 63.24932589 -66.61166733 64.34354588 -70.32302856 65.44213867 C-72.90350772 66.20582524 -75.48488657 66.96640218 -78.06640625 67.7265625 C-78.84185791 67.95731476 -79.61730957 68.18806702 -80.41625977 68.42581177 C-85.77338509 70 -85.77338509 70 -88 70 C-87.99333817 70.86284607 -87.98667633 71.72569214 -87.97981262 72.61468506 C-87.91940737 80.79309295 -87.87387723 88.97142463 -87.84456348 97.15000534 C-87.82898578 101.35351927 -87.8078941 105.55684706 -87.77368164 109.76025391 C-87.74080355 113.82570444 -87.72308781 117.89097725 -87.71536827 121.9565506 C-87.70987531 123.49850507 -87.69915077 125.04045113 -87.68280983 126.5823288 C-87.53510814 141.11242206 -88.94556345 152.82236514 -99 164 C-106.26085984 170.99894505 -114.47175038 174.19703173 -124.5 174.5 C-135.14005379 174.16816734 -143.44546837 170.56900391 -151 163 C-157.74423994 154.23837824 -160.92455086 144.95746158 -159.55859375 133.9453125 C-157.54142936 123.30935479 -152.13571022 115.65467672 -143.5078125 109.109375 C-134.03638492 103.03113799 -123.74011349 101.4959969 -112.703125 103.640625 C-104.92056075 105.53971963 -104.92056075 105.53971963 -102 107 C-102 81.59 -102 56.18 -102 30 C-93.399375 27.525 -93.399375 27.525 -84.625 25 C-70.25054437 20.84765088 -55.92214464 16.57569615 -41.63574219 12.12890625 C-34.75451144 9.99226839 -27.86768274 7.87391722 -20.97906494 5.76123047 C-18.53596192 5.01104259 -16.09390668 4.25750969 -13.65185547 3.50390625 C-12.15337907 3.0440793 -10.65484661 2.58443502 -9.15625 2.125 C-8.11448105 1.80221069 -8.11448105 1.80221069 -7.05166626 1.47290039 C-2.22794795 0 -2.22794795 0 0 0 Z " fill="#FDDC00" transform="translate(309,146)"/>
<path d="M0 0 C8.36837425 6.96739082 14.05370427 16.11053072 15.17578125 27.05078125 C16.18162913 39.3724178 13.64860168 49.10106376 5.7890625 58.75390625 C-0.19621662 65.42031882 -9.4886198 70.75749251 -18.51953125 71.25390625 C-33.9323396 71.5296648 -33.9323396 71.5296648 -40.82421875 68.05078125 C-42.06751953 67.4475 -42.06751953 67.4475 -43.3359375 66.83203125 C-53.40392491 61.41428018 -58.95198945 52.95469207 -62.41015625 42.234375 C-64.76808592 29.79963266 -62.34730605 17.96039634 -55.6171875 7.375 C-42.56929535 -9.53893427 -17.07805032 -11.78692546 0 0 Z " fill="#FBDC02" transform="translate(748.82421875,221.94921875)"/>
<path d="M0 0 C5.61 0 11.22 0 17 0 C20.125 6.25 20.125 6.25 21.23510742 8.47241211 C23.37309014 12.75183147 25.51604483 17.02870865 27.66436768 21.302948 C28.93727744 23.83619973 30.20855414 26.37026935 31.47967529 28.90441895 C32.11783391 30.17569369 32.75670856 31.44660925 33.39630127 32.71716309 C34.30641268 34.52535722 35.21380313 36.3349201 36.12109375 38.14453125 C36.6514624 39.20003174 37.18183105 40.25553223 37.72827148 41.34301758 C39 44 39 44 40 47 C40.40347656 46.19304687 40.80695312 45.38609375 41.22265625 44.5546875 C48.48177083 30.03645833 55.74088542 15.51822917 63 1 C68.61 1 74.22 1 80 1 C80 25.42 80 49.84 80 75 C75.38 75 70.76 75 66 75 C65.67 59.49 65.34 43.98 65 28 C60.61699474 37.0931189 60.61699474 37.0931189 56.2355957 46.18701172 C52.87599982 53.1515645 49.47945585 60.09431134 46 67 C42.04 67 38.08 67 34 67 C32.23955655 63.21406277 30.47974085 59.42783452 28.72045898 55.64135742 C28.12426929 54.35840337 27.52792022 53.07552337 26.93139648 51.79272461 C26.06450161 49.92842672 25.19821755 48.06384595 24.33203125 46.19921875 C23.55436401 44.52605591 23.55436401 44.52605591 22.76098633 42.8190918 C20.48748395 37.88849458 18.24674811 32.94284583 16 28 C15.67 43.51 15.34 59.02 15 75 C10.05 75 5.1 75 0 75 C0 50.25 0 25.5 0 0 Z " fill="#FCDC02" transform="translate(595,216)"/>
<path d="M0 0 C43.87301587 0 43.87301587 0 52.0625 7.9375 C57.94959415 15.17761823 57.7579614 23.08447901 57 32 C55.40703992 37.9826512 52.01677588 41.55096659 47 45 C44.8125 45.62890625 44.8125 45.62890625 43 46 C43.45439453 46.84296631 43.90878906 47.68593262 44.37695312 48.55444336 C46.05629131 51.67115875 47.73290849 54.78933078 49.40869141 57.90795898 C50.1354838 59.25959772 50.86302155 60.61083594 51.59130859 61.96166992 C52.63573541 63.89918824 53.67750605 65.8381135 54.71875 67.77734375 C55.04685669 68.38464828 55.37496338 68.99195282 55.7130127 69.61766052 C58 73.88612829 58 73.88612829 58 75 C52.72 75 47.44 75 42 75 C41.31292969 73.68644531 40.62585938 72.37289062 39.91796875 71.01953125 C39.00788979 69.28381364 38.09772925 67.5481388 37.1875 65.8125 C36.73568359 64.94818359 36.28386719 64.08386719 35.81835938 63.19335938 C34.00829561 59.74498971 32.20567563 56.33692047 30.17578125 53.01171875 C29 51 29 51 29 49 C24.05 48.67 19.1 48.34 14 48 C14 56.91 14 65.82 14 75 C9.38 75 4.76 75 0 75 C0 50.25 0 25.5 0 0 Z " fill="#FBDC02" transform="translate(528,216)"/>
<path d="M0 0 C5.61 0 11.22 0 17 0 C22.52197749 6.00405489 22.52197749 6.00405489 23.88110352 8.84277344 C24.1868631 9.46019409 24.49262268 10.07761475 24.80764771 10.71374512 C25.11862396 11.34445923 25.42960022 11.97517334 25.75 12.625 C26.43881444 13.89964733 27.13413307 15.17079983 27.83569336 16.43847656 C29.25147026 19.0137507 30.63297675 21.60314065 31.98974609 24.20996094 C34.38312375 28.77511526 37.00840209 33.18231619 39.66723633 37.59814453 C42.14208238 41.71385529 44.56626206 45.85984811 47 50 C47.33 33.5 47.66 17 48 0 C52.95 0 57.9 0 63 0 C63 24.75 63 49.5 63 75 C45 75 45 75 40.92578125 71.06640625 C39.5559082 68.44458008 39.5559082 68.44458008 38.3125 65.5625 C37.29524847 63.55547223 36.27425405 61.5503382 35.25 59.546875 C34.734375 58.48533203 34.21875 57.42378906 33.6875 56.33007812 C30.71741515 50.46897318 27.23788447 44.91436698 23.8125 39.3125 C22.54700826 37.20512853 21.28259894 35.09710649 20.01953125 32.98828125 C18.39458669 30.28118184 16.75187092 27.62780638 15 25 C14.67 41.5 14.34 58 14 75 C9.38 75 4.76 75 0 75 C0 50.25 0 25.5 0 0 Z " fill="#FDDE01" transform="translate(774,216)"/>
<path d="M0 0 C5.61 0 11.22 0 17 0 C21.60954339 10.73391656 25.69915414 21.65032534 29.79296875 32.58911133 C30.99375197 35.79581458 32.19977861 39.00051131 33.40625 42.20507812 C37.48706882 53.07452224 41.42577648 63.95305512 45 75 C40.05 75 35.1 75 30 75 C25 63.375 25 63.375 25 60 C9.16 60.495 9.16 60.495 -7 61 C-8.65 65.62 -10.3 70.24 -12 75 C-17.28 75 -22.56 75 -28 75 C-26.11668217 68.49405813 -24.02599797 62.18926814 -21.5234375 55.8984375 C-21.19642853 55.06631241 -20.86941956 54.23418732 -20.53250122 53.37684631 C-19.83917714 51.61335498 -19.14414928 49.85053264 -18.44750977 48.08834839 C-16.64147099 43.51924091 -14.84826162 38.94510549 -13.0546875 34.37109375 C-12.52696747 33.02637749 -12.52696747 33.02637749 -11.98858643 31.65449524 C-7.87160749 21.14786596 -3.90862294 10.58585379 0 0 Z " fill="#FBDC03" transform="translate(475,216)"/>
<path d="M0 0 C4.62 0 9.24 0 14 0 C14 10.23 14 20.46 14 31 C24.56 31 35.12 31 46 31 C46 20.77 46 10.54 46 0 C50.95 0 55.9 0 61 0 C61 24.75 61 49.5 61 75 C56.05 75 51.1 75 46 75 C46 64.77 46 54.54 46 44 C35.44 44 24.88 44 14 44 C14 54.23 14 64.46 14 75 C9.38 75 4.76 75 0 75 C0 50.25 0 25.5 0 0 Z " fill="#FDDD00" transform="translate(378,216)"/>
<path d="M0 0 C5.97596247 -1.06502301 12.1615075 -2.12797852 18 0 C24.47494196 5.74607417 28.01815062 15.04299974 31 23 C35.28067834 19.28872305 37.83197334 14.6271827 40.6875 9.8125 C41.669461 8.1725108 42.65247738 6.5331529 43.63671875 4.89453125 C44.06686279 4.17112549 44.49700684 3.44771973 44.94018555 2.70239258 C46 1 46 1 47 0 C49.86267567 -0.07325168 52.700719 -0.09238205 55.5625 -0.0625 C56.36880859 -0.05798828 57.17511719 -0.05347656 58.00585938 -0.04882812 C60.00393756 -0.03700518 62.00197783 -0.01906914 64 0 C62.71869383 3.44637632 61.23109754 6.41032024 59.20703125 9.4765625 C58.66167725 10.30704102 58.11632324 11.13751953 57.55444336 11.99316406 C56.97960205 12.86166992 56.40476074 13.73017578 55.8125 14.625 C55.23185791 15.51928711 54.65121582 16.41357422 54.05297852 17.33496094 C51.59668512 21.11218519 49.14332406 24.86673315 46.4453125 28.4765625 C45.78273438 29.39179688 45.12015625 30.30703125 44.4375 31.25 C43.56931641 32.37148437 43.56931641 32.37148437 42.68359375 33.515625 C41.71194177 37.04688589 42.94703308 38.76511023 44.69750977 41.87207031 C45.12733154 42.57428711 45.55715332 43.27650391 46 44 C46.40984131 44.67385742 46.81968262 45.34771484 47.24194336 46.04199219 C48.54905518 48.13156716 49.89268464 50.19271846 51.25 52.25 C51.72800049 52.9829126 52.20600098 53.7158252 52.69848633 54.47094727 C54.93863917 57.89796578 57.20087886 61.3088346 59.49609375 64.69921875 C60.21925781 65.76785156 60.94242188 66.83648437 61.6875 67.9375 C62.33074219 68.87464844 62.97398437 69.81179688 63.63671875 70.77734375 C65 73 65 73 65 75 C50.05711143 76.51277837 50.05711143 76.51277837 45.59375 73.23046875 C43.77580219 70.57643645 42.39454842 67.89919276 41 65 C39.95807538 63.21139632 38.87591759 61.4529523 37.78149414 59.69604492 C36.73131122 58.00792451 35.71446321 56.29920426 34.69921875 54.58984375 C33.25730975 51.9192787 33.25730975 51.9192787 31 51 C30.773125 51.65742188 30.54625 52.31484375 30.3125 52.9921875 C28.5813966 56.95929945 26.32298986 60.48122447 24 64.125 C23.54882812 64.84042969 23.09765625 65.55585938 22.6328125 66.29296875 C20.78522047 69.21741175 18.91895637 72.12156545 17 75 C15.12060547 75.34057617 15.12060547 75.34057617 12.8671875 75.29296875 C12.06152344 75.28330078 11.25585938 75.27363281 10.42578125 75.26367188 C9.58402344 75.23853516 8.74226562 75.21339844 7.875 75.1875 C6.60076172 75.16719727 6.60076172 75.16719727 5.30078125 75.14648438 C3.20025163 75.11108219 1.10004707 75.05727401 -1 75 C-0.62230469 74.41476562 -0.24460937 73.82953125 0.14453125 73.2265625 C4.52710424 66.39098027 8.78274966 59.48396123 13.00317383 52.54736328 C13.44814209 51.81630371 13.89311035 51.08524414 14.3515625 50.33203125 C14.78500977 49.61354004 15.21845703 48.89504883 15.66503906 48.15478516 C16.57417969 46.68732445 17.51527739 45.23929589 18.48339844 43.81005859 C18.95036133 43.11348145 19.41732422 42.4169043 19.8984375 41.69921875 C20.32560059 41.08264404 20.75276367 40.46606934 21.19287109 39.83081055 C22.2554309 37.42060608 21.94041217 36.4326777 21 34 C19.93379163 31.97747087 19.93379163 31.97747087 18.59375 29.9453125 C17.85463379 28.78491455 17.85463379 28.78491455 17.10058594 27.60107422 C16.57239258 26.78396973 16.04419922 25.96686523 15.5 25.125 C14.96407227 24.28598145 14.42814453 23.44696289 13.87597656 22.58251953 C11.33148968 18.60382604 8.7669162 14.63814533 6.203125 10.671875 C5.57760742 9.70290283 5.57760742 9.70290283 4.93945312 8.71435547 C4.15964733 7.50847352 3.37718526 6.30430425 2.59179688 5.10205078 C0 1.10898803 0 1.10898803 0 0 Z " fill="#FBDC03" transform="translate(870,216)"/>
<path d="M0 0 C5.41252364 4.68137598 9.41938553 10.29702282 10.3125 17.53125 C10.67840371 25.67260747 8.85332733 32.54597218 3.625 38.875 C-4.1877378 45.19959727 -10.01439675 47.04599498 -20 46 C-27.49469447 43.7630898 -32.09353022 39.67526591 -36 33 C-38.90132919 27.61181722 -39.62089419 20.98869182 -38.4375 15 C-36.15220584 7.41766641 -31.74355898 1.81555218 -24.9296875 -2.125 C-16.6520649 -5.87841592 -7.67759212 -4.53041386 0 0 Z " fill="#390D8A" transform="translate(739,233)"/>
<path d="M0 0 C4.6627562 1.51792564 6.89992548 4.64398743 9.33984375 8.76171875 C13.82447988 18.54952358 16.78249711 29.02424914 19.89257812 39.31103516 C21.86566434 45.8859086 21.86566434 45.8859086 25.33984375 51.76171875 C25.99984375 51.76171875 26.65984375 51.76171875 27.33984375 51.76171875 C28.5537246 49.38941354 29.76196718 47.01460499 30.96484375 44.63671875 C31.3294873 43.91766357 31.69413086 43.1986084 32.06982422 42.45776367 C34.43608492 37.73405998 36.50837174 32.98100892 38.46484375 28.07421875 C40.69304505 22.81302107 42.17181404 19.3984686 47.33984375 16.76171875 C51.37878389 16.62244495 53.38799332 16.89640018 56.40234375 19.63671875 C58.75264262 23.42752338 60.7894785 27.34400157 62.77734375 31.3359375 C64.48386173 33.98530667 65.35351828 34.84923041 68.33984375 35.76171875 C70.71285764 35.79149619 70.71285764 35.79149619 73.08984375 35.38671875 C73.8890625 35.27585937 74.68828125 35.165 75.51171875 35.05078125 C76.115 34.95539063 76.71828125 34.86 77.33984375 34.76171875 C78.46484375 37.07421875 78.46484375 37.07421875 79.33984375 39.76171875 C77.33984375 42.76171875 77.33984375 42.76171875 75.45703125 43.37890625 C69.84797153 44.0238504 65.17963071 43.92698026 60.33984375 40.76171875 C56.38001599 36.69438435 53.66165206 31.92129278 51.33984375 26.76171875 C49.09655054 29.55243948 47.59520855 32.18544197 46.25390625 35.5 C45.69316406 36.85448242 45.69316406 36.85448242 45.12109375 38.23632812 C44.35546678 40.11547674 43.59240877 41.99567425 42.83203125 43.87695312 C40.09213071 50.47804911 37.46796169 56.67630679 31.33984375 60.76171875 C27.34587533 61.65189317 23.8256742 61.51390386 20.1484375 59.65234375 C13.7254486 54.72845852 11.65171325 48.24175016 9.33984375 40.76171875 C9.0248291 39.75850586 8.70981445 38.75529297 8.38525391 37.72167969 C6.29001617 31.03433891 4.23770858 24.33499469 2.22192383 17.62329102 C1.30641625 14.65327599 0.33325318 11.70649735 -0.66015625 8.76171875 C-6.00258531 11.15371225 -7.48924026 14.63096151 -9.78515625 19.69921875 C-14.16014758 29.0826461 -14.16014758 29.0826461 -16.66015625 31.76171875 C-19.22265625 32.13671875 -19.22265625 32.13671875 -21.66015625 31.76171875 C-22.32015625 31.10171875 -22.98015625 30.44171875 -23.66015625 29.76171875 C-23.43497661 23.86951829 -21.99186572 19.67848609 -18.91015625 14.63671875 C-18.575 14.05535156 -18.23984375 13.47398437 -17.89453125 12.875 C-13.57664603 5.56403525 -9.34112637 -1.40798177 0 0 Z " fill="#F9DD04" transform="translate(266.66015625,234.23828125)"/>
<path d="M0 0 C4.62 0 9.24 0 14 0 C14 24.75 14 49.5 14 75 C9.38 75 4.76 75 0 75 C0 50.25 0 25.5 0 0 Z " fill="#FDDF01" transform="translate(850,216)"/>
<path d="M0 0 C3.56295812 -0.08104454 7.12406707 -0.14052442 10.6875 -0.1875 C11.69490234 -0.21263672 12.70230469 -0.23777344 13.74023438 -0.26367188 C23.29458366 -0.35826939 23.29458366 -0.35826939 27 3 C28.97755751 5.86951223 29.26485893 8.00320718 28.9375 11.4375 C28.88464844 12.17871094 28.83179688 12.91992188 28.77734375 13.68359375 C27.54040633 17.36954294 26.20580974 18.74726883 23 21 C19.04400869 21.60881678 15.1778485 21.47094389 11.1875 21.3125 C10.11306641 21.28994141 9.03863281 21.26738281 7.93164062 21.24414062 C5.28716112 21.18537441 2.64340067 21.09569833 0 21 C0 14.07 0 7.14 0 0 Z " fill="#360D8E" transform="translate(542,230)"/>
<path d="M0 0 C0.66 0 1.32 0 2 0 C3.51041757 4.07955572 5.0065145 8.16421836 6.5 12.25 C6.92925781 13.40886719 7.35851562 14.56773437 7.80078125 15.76171875 C8.40986328 17.43427734 8.40986328 17.43427734 9.03125 19.140625 C9.40830078 20.16704102 9.78535156 21.19345703 10.17382812 22.25097656 C11 25 11 25 11 29 C4.07 29 -2.86 29 -10 29 C-6.625 18.875 -6.625 18.875 -5.17578125 14.74609375 C-4.71655273 13.43608398 -4.71655273 13.43608398 -4.24804688 12.09960938 C-3.93931641 11.22111328 -3.63058594 10.34261719 -3.3125 9.4375 C-2.99216797 8.52419922 -2.67183594 7.61089844 -2.34179688 6.66992188 C-1.56181678 4.44639654 -0.78120838 2.22309402 0 0 Z " fill="#39118A" transform="translate(483,234)"/>
<path d="M0 0 C4.95 0 9.9 0 15 0 C15 24.75 15 49.5 15 75 C10.05 75 5.1 75 0 75 C0 74.67 0 74.34 0 74 C4.29 74 8.58 74 13 74 C13 50.24 13 26.48 13 2 C9.04 2 5.08 2 1 2 C1 11.9 1 21.8 1 32 C-10.22 32 -21.44 32 -33 32 C-33 24.08 -33 16.16 -33 8 C-32.67 8 -32.34 8 -32 8 C-32 15.59 -32 23.18 -32 31 C-21.44 31 -10.88 31 0 31 C0 20.77 0 10.54 0 0 Z " fill="#E9D710" transform="translate(424,216)"/>
<path d="M0 0 C5.61 0 11.22 0 17 0 C17.33 0.66 17.66 1.32 18 2 C12.72 2 7.44 2 2 2 C2 25.76 2 49.52 2 74 C5.63 74 9.26 74 13 74 C13 57.83 13 41.66 13 25 C13.33 25 13.66 25 14 25 C14 41.5 14 58 14 75 C9.38 75 4.76 75 0 75 C0 50.25 0 25.5 0 0 Z " fill="#ECD70E" transform="translate(595,216)"/>
<path d="M0 0 C2.47923801 -0.02685095 4.9581884 -0.04676547 7.4375 -0.0625 C8.14455078 -0.07087891 8.85160156 -0.07925781 9.58007812 -0.08789062 C11.38693559 -0.09653588 13.19387603 -0.05220011 15 0 C16.87124497 1.87124497 16.1740499 5.04198478 16.20532227 7.53930664 C16.21522186 8.22220261 16.22512146 8.90509857 16.23532104 9.60868835 C16.26701935 11.87580853 16.29172613 14.14294969 16.31640625 16.41015625 C16.3369686 17.97815001 16.35796488 19.54613813 16.37937927 21.11412048 C16.43467424 25.24870248 16.48405062 29.38333511 16.53222656 33.51800537 C16.58238753 37.73405483 16.63810174 41.95003043 16.69335938 46.16601562 C16.8010317 54.44394803 16.90245635 62.72194208 17 71 C21.22104999 68.27809315 21.22104999 68.27809315 25 65 C24.32718896 69.37327173 22.77390849 70.83913726 20 75 C25.94 75.33 31.88 75.66 38 76 C37.67 76.66 37.34 77.32 37 78 C34.04142591 78.05379226 31.08382279 78.09357093 28.125 78.125 C26.86236328 78.15013672 26.86236328 78.15013672 25.57421875 78.17578125 C24.76855469 78.18222656 23.96289062 78.18867188 23.1328125 78.1953125 C22.38918457 78.20578613 21.64555664 78.21625977 20.87939453 78.22705078 C19 78 19 78 17 76 C16.34 76 15.68 76 15 76 C13.6639391 51.01281855 13.90021017 26.01347174 14 1 C9.38 1 4.76 1 0 1 C0 0.67 0 0.34 0 0 Z " fill="#22039C" transform="translate(850,215)"/>
<path d="M0 0 C4.95 0 9.9 0 15 0 C15 24.75 15 49.5 15 75 C9.39 75 3.78 75 -2 75 C-2 74.67 -2 74.34 -2 74 C2.95 74 7.9 74 13 74 C13 50.24 13 26.48 13 2 C8.71 2 4.42 2 0 2 C0 1.34 0 0.68 0 0 Z " fill="#E7D011" transform="translate(822,216)"/>
<path d="M0 0 C2.47923801 -0.02685095 4.9581884 -0.04676547 7.4375 -0.0625 C8.14455078 -0.07087891 8.85160156 -0.07925781 9.58007812 -0.08789062 C11.38693559 -0.09653588 13.19387603 -0.05220011 15 0 C16 1 16 1 16.11352539 3.77563477 C16.10828857 4.98533936 16.10305176 6.19504395 16.09765625 7.44140625 C16.09515869 8.61646729 16.09266113 9.79152832 16.09008789 11.00219727 C16.08098389 12.50709717 16.07187988 14.01199707 16.0625 15.5625 C16.041875 20.326875 16.02125 25.09125 16 30 C25.57 30 35.14 30 45 30 C45 20.1 45 10.2 45 0 C50.28 0 55.56 0 61 0 C61 0.33 61 0.66 61 1 C56.05 1 51.1 1 46 1 C46 11.23 46 21.46 46 32 C35.44 32 24.88 32 14 32 C14 21.77 14 11.54 14 1 C9.38 1 4.76 1 0 1 C0 0.67 0 0.34 0 0 Z " fill="#260E9B" transform="translate(378,215)"/>
<path d="M0 0 C-1.91405367 0.67413211 -3.83136026 1.3390332 -5.75 2 C-6.81734375 2.37125 -7.8846875 2.7425 -8.984375 3.125 C-12 4 -12 4 -16 4 C-16 29.41 -16 54.82 -16 81 C-16.99 80.67 -17.98 80.34 -19 80 C-18.505 42.38 -18.505 42.38 -18 4 C-3.88235294 -1.29411765 -3.88235294 -1.29411765 0 0 Z " fill="#381B8B" transform="translate(223,172)"/>
<path d="M0 0 C0.33 0 0.66 0 1 0 C1 17.16 1 34.32 1 52 C-1.83308721 48.22255039 -4.30435179 44.40221881 -6.75 40.375 C-7.17410156 39.694375 -7.59820313 39.01375 -8.03515625 38.3125 C-9.0870775 36.57871449 -10.0513435 34.79237311 -11 33 C-10.67 32.34 -10.34 31.68 -10 31 C-8.68 32.98 -7.36 34.96 -6 37 C-5.67 35.35 -5.34 33.7 -5 32 C-4.34 32 -3.68 32 -3 32 C-2.34 32.99 -1.68 33.98 -1 35 C-0.67 23.45 -0.34 11.9 0 0 Z " fill="#24089B" transform="translate(821,216)"/>
<path d="M0 0 C0.33 0 0.66 0 1 0 C1.33 8.91 1.66 17.82 2 27 C2.66 26.34 3.32 25.68 4 25 C6.93453261 25.36681658 7.86437246 25.86437246 10 28 C9.67 28.99 9.34 29.98 9 31 C6.69 31.33 4.38 31.66 2 32 C1.67 45.53 1.34 59.06 1 73 C0.67 73 0.34 73 0 73 C0 48.91 0 24.82 0 0 Z " fill="#431581" transform="translate(677,216)"/>
<path d="M0 0 C12 0 12 0 15 1 C15.6875 3.0625 15.6875 3.0625 16 5 C15.34 4.67 14.68 4.34 14 4 C14 3.34 14 2.68 14 2 C10.04 2 6.08 2 2 2 C2.02320313 3.62550781 2.04640625 5.25101562 2.0703125 6.92578125 C2.08906934 9.05468292 2.10726963 11.18358954 2.125 13.3125 C2.15013672 14.9202832 2.15013672 14.9202832 2.17578125 16.56054688 C2.18222656 17.58857422 2.18867187 18.61660156 2.1953125 19.67578125 C2.20578613 20.62364502 2.21625977 21.57150879 2.22705078 22.5480957 C2 25 2 25 0 28 C0 18.76 0 9.52 0 0 Z " fill="#23059D" transform="translate(542,264)"/>
<path d="M0 0 C0.33 0.99 0.66 1.98 1 3 C-0.65 5.31 -2.3 7.62 -4 10 C1.94 10.33 7.88 10.66 14 11 C13.67 11.66 13.34 12.32 13 13 C10.04142591 13.05379226 7.08382279 13.09357093 4.125 13.125 C2.86236328 13.15013672 2.86236328 13.15013672 1.57421875 13.17578125 C0.76855469 13.18222656 -0.03710938 13.18867188 -0.8671875 13.1953125 C-1.61081543 13.20578613 -2.35444336 13.21625977 -3.12060547 13.22705078 C-5 13 -5 13 -7 11 C-7.625 8.875 -7.625 8.875 -8 7 C-7.50628906 6.66226562 -7.01257813 6.32453125 -6.50390625 5.9765625 C-5.86324219 5.53054688 -5.22257813 5.08453125 -4.5625 4.625 C-3.92441406 4.18414062 -3.28632812 3.74328125 -2.62890625 3.2890625 C-0.86259072 2.07839147 -0.86259072 2.07839147 0 0 Z " fill="#2D0992" transform="translate(874,280)"/>
<path d="M0 0 C2.24107627 2.9881017 3.74838835 5.25111014 5.25 8.5625 C5.60578125 9.32691406 5.9615625 10.09132812 6.328125 10.87890625 C7 13 7 13 6 16 C4.68 13.36 3.36 10.72 2 8 C1.67 21.86 1.34 35.72 1 50 C0.67 50 0.34 50 0 50 C0 33.5 0 17 0 0 Z " fill="#0500B2" transform="translate(610,242)"/>
<path d="M0 0 C2.37763919 2.17384154 3.81858833 4.25225342 5.26171875 7.125 C5.65810547 7.91390625 6.05449219 8.7028125 6.46289062 9.515625 C7.06907227 10.74539063 7.06907227 10.74539063 7.6875 12 C8.10322266 12.81984375 8.51894531 13.6396875 8.94726562 14.484375 C9.33978516 15.27328125 9.73230469 16.0621875 10.13671875 16.875 C10.49467529 17.59429687 10.85263184 18.31359375 11.22143555 19.0546875 C12 21 12 21 12 24 C15.3 24 18.6 24 22 24 C22 24.33 22 24.66 22 25 C20.22950311 25.05410687 18.45853151 25.09284119 16.6875 25.125 C15.20830078 25.15980469 15.20830078 25.15980469 13.69921875 25.1953125 C11 25 11 25 8 23 C8 21.68 8 20.36 8 19 C7.37715062 17.06787308 7.37715062 17.06787308 6.5 15.25 C6.005 14.1775 5.51 13.105 5 12 C3.35 12 1.7 12 0 12 C0.185625 10.7625 0.37125 9.525 0.5625 8.25 C0.94711223 5.23720423 1.0874594 2.89989173 0 0 Z " fill="#270B98" transform="translate(617,259)"/>
<path d="M0 0 C0.99 0 1.98 0 3 0 C3 5.94 3 11.88 3 18 C2.67 17.34 2.34 16.68 2 16 C1.34 16 0.68 16 0 16 C0 13.03 0 10.06 0 7 C-1.65 7.33 -3.3 7.66 -5 8 C-5 6.02 -5 4.04 -5 2 C-3.68 2 -2.36 2 -1 2 C-0.67 1.34 -0.34 0.68 0 0 Z " fill="#380C88" transform="translate(683,245)"/>
<path d="M0 0 C-2.38573379 1.89213369 -4.07175348 3.02391783 -7 4 C-6.99476318 4.68400879 -6.98952637 5.36801758 -6.98413086 6.07275391 C-6.81727622 31.19388222 -6.81727622 31.19388222 -8 43 C-8.33 43 -8.66 43 -9 43 C-9.495 22.21 -9.495 22.21 -10 1 C-3.25 -1.25 -3.25 -1.25 0 0 Z " fill="#32098D" transform="translate(231,215)"/>
<path d="M0 0 C6.52307692 0.49230769 6.52307692 0.49230769 8.9375 3.0625 C9.288125 3.701875 9.63875 4.34125 10 5 C9.34 5.66 8.68 6.32 8 7 C7.67 6.67 7.34 6.34 7 6 C5.35 7.98 3.7 9.96 2 12 C1.01 11.67 0.02 11.34 -1 11 C-1 10.34 -1 9.68 -1 9 C-0.34 8.67 0.32 8.34 1 8 C1.65555119 5.47266765 1.65555119 5.47266765 2 3 C1.34 2.67 0.68 2.34 0 2 C0 1.34 0 0.68 0 0 Z " fill="#F2D50A" transform="translate(314,251)"/>
<path d="M0 0 C0.99 0 1.98 0 3 0 C3.8680908 1.91040052 4.71901783 3.82860737 5.5625 5.75 C6.03816406 6.81734375 6.51382812 7.8846875 7.00390625 8.984375 C7.9946154 11.98369837 8.16161779 13.13421241 7 16 C3.28930302 12.00386479 1.40208382 9.62917348 1 4 C0.01 3.67 -0.98 3.34 -2 3 C-1.34 2.01 -0.68 1.02 0 0 Z " fill="#340F8E" transform="translate(263,243)"/>
<path d="M0 0 C0.33 0.66 0.66 1.32 1 2 C0.41088867 3.69238281 0.41088867 3.69238281 -0.58203125 5.703125 C-0.93716797 6.43660156 -1.29230469 7.17007812 -1.65820312 7.92578125 C-2.03912109 8.69277344 -2.42003906 9.45976562 -2.8125 10.25 C-7.17411747 18.26789862 -7.17411747 18.26789862 -9 27 C-9.99 27.33 -10.98 27.66 -12 28 C-12.66 28.66 -13.32 29.32 -14 30 C-13.38322878 26.01819754 -12.12472659 22.88684355 -10.3125 19.296875 C-9.77882813 18.2346875 -9.24515625 17.1725 -8.6953125 16.078125 C-7.85613281 14.43070312 -7.85613281 14.43070312 -7 12.75 C-6.16082031 11.079375 -6.16082031 11.079375 -5.3046875 9.375 C-1.1541718 1.1541718 -1.1541718 1.1541718 0 0 Z " fill="#270C9A" transform="translate(657,250)"/>
<path d="M0 0 C2.61885488 2.36944013 4.41866551 4.83733102 6 8 C5.67 8.99 5.34 9.98 5 11 C-0.94 11 -6.88 11 -13 11 C-13 10.34 -13 9.68 -13 9 C-5.08 8.505 -5.08 8.505 3 8 C1.515 5.03 1.515 5.03 0 2 C0 1.34 0 0.68 0 0 Z " fill="#270797" transform="translate(582,282)"/>
<path d="M0 0 C0 14.52 0 29.04 0 44 C-0.33 44 -0.66 44 -1 44 C-1 30.47 -1 16.94 -1 3 C-2.32 2.34 -3.64 1.68 -5 1 C-2 0 -2 0 0 0 Z " fill="#DAB21A" transform="translate(309,146)"/>
<path d="M0 0 C0.99 0.33 1.98 0.66 3 1 C3 1.66 3 2.32 3 3 C2.37609375 3.53109375 1.7521875 4.0621875 1.109375 4.609375 C-1.80683333 7.91441111 -2.10903651 10.9819372 -2.75 15.25 C-2.87503906 15.99507813 -3.00007812 16.74015625 -3.12890625 17.5078125 C-3.43363834 19.33620503 -3.71878521 21.16784304 -4 23 C-4.66 23 -5.32 23 -6 23 C-5.39501779 5.39501779 -5.39501779 5.39501779 0 0 Z " fill="#EBD40F" transform="translate(155,266)"/>
<path d="M0 0 C3 1 3 1 4 3 C4.66 3.33 5.32 3.66 6 4 C5.34 4.66 4.68 5.32 4 6 C3.34 5.67 2.68 5.34 2 5 C2.01047363 5.56509277 2.02094727 6.13018555 2.03173828 6.71240234 C2.07324788 9.26655653 2.0993096 11.82063982 2.125 14.375 C2.14175781 15.26445312 2.15851562 16.15390625 2.17578125 17.0703125 C2.18222656 17.92109375 2.18867187 18.771875 2.1953125 19.6484375 C2.20578613 20.43395996 2.21625977 21.21948242 2.22705078 22.02880859 C2 24 2 24 0 26 C0.01160156 24.85402344 0.02320313 23.70804687 0.03515625 22.52734375 C0.04454242 20.99739748 0.05364173 19.46744942 0.0625 17.9375 C0.07087891 17.18533203 0.07925781 16.43316406 0.08789062 15.65820312 C0.10361475 12.02592967 -0.04647869 8.67721351 -0.56640625 5.06640625 C-1 2 -1 2 0 0 Z " fill="#240998" transform="translate(763,240)"/>
<path d="M0 0 C1.2432943 3.7298829 2 7.06121709 2 11 C0.35 11 -1.3 11 -3 11 C-3.99 13.31 -4.98 15.62 -6 18 C-7.35685993 13.92942022 -5.80868515 11.57910733 -4.125 7.875 C-3.70154297 6.90626953 -3.70154297 6.90626953 -3.26953125 5.91796875 C-1.16870301 1.16870301 -1.16870301 1.16870301 0 0 Z " fill="#280C97" transform="translate(317,260)"/>
<path d="M0 0 C5.25263533 0.95714688 8.48255387 4.13955243 12 8 C14.35871879 11.50633559 16.4941891 15.0433086 18 19 C17.67 19.99 17.34 20.98 17 22 C16.71769531 21.41992188 16.43539062 20.83984375 16.14453125 20.2421875 C10.84563904 9.85727638 10.84563904 9.85727638 2.1875 2.625 C1.465625 2.41875 0.74375 2.2125 0 2 C0 1.34 0 0.68 0 0 Z " fill="#F6E607" transform="translate(744,221)"/>
<path d="M0 0 C5.61 0 11.22 0 17 0 C16.34 1.32 15.68 2.64 15 4 C14.67 3.34 14.34 2.68 14 2 C9.38 2 4.76 2 0 2 C0 1.34 0 0.68 0 0 Z " fill="#E3C817" transform="translate(917,216)"/>
<path d="M0 0 C0 3.34419152 -0.47519394 4.06840321 -2.375 6.6875 C-2.81585937 7.31011719 -3.25671875 7.93273437 -3.7109375 8.57421875 C-4.13632812 9.04472656 -4.56171875 9.51523437 -5 10 C-5.66 10 -6.32 10 -7 10 C-7.33 10.66 -7.66 11.32 -8 12 C-8.66 10.35 -9.32 8.7 -10 7 C-9.44570313 6.66226562 -8.89140625 6.32453125 -8.3203125 5.9765625 C-7.59585938 5.53054688 -6.87140625 5.08453125 -6.125 4.625 C-5.04605469 3.96371094 -5.04605469 3.96371094 -3.9453125 3.2890625 C-1.88206418 2.0146287 -1.88206418 2.0146287 0 0 Z " fill="#2A0E96" transform="translate(581,255)"/>
<path d="M0 0 C4.03677965 1.34559322 5.16722793 3.96001449 7.25 7.4375 C7.62640625 8.03626953 8.0028125 8.63503906 8.390625 9.25195312 C9.33016605 10.79425121 10.17320769 12.39443615 11 14 C10.67 14.66 10.34 15.32 10 16 C8.85252535 14.37615858 7.7070709 12.75088944 6.5625 11.125 C5.92441406 10.22007812 5.28632812 9.31515625 4.62890625 8.3828125 C3 6 3 6 2 4 C1.01 4 0.02 4 -1 4 C-0.67 2.68 -0.34 1.36 0 0 Z " fill="#250C99" transform="translate(901,267)"/>
<path d="M0 0 C4.2693263 1.98858245 7.78929784 4.54427057 11 8 C11.9375 10.875 11.9375 10.875 12 13 C11.01 13.495 11.01 13.495 10 14 C9.61328125 13.40832031 9.2265625 12.81664062 8.828125 12.20703125 C6.04615051 7.98586699 3.25370649 3.87941928 0 0 Z " fill="#2A0D95" transform="translate(749,222)"/>
<path d="M0 0 C0.33 0 0.66 0 1 0 C1 5.94 1 11.88 1 18 C0.67 17.34 0.34 16.68 0 16 C-0.66 16 -1.32 16 -2 16 C-1.34 10.72 -0.68 5.44 0 0 Z " fill="#250D98" transform="translate(685,245)"/>
<path d="M0 0 C-3.32004621 2.21336414 -4.07410932 2.20762974 -7.88671875 1.9765625 C-8.82451172 1.925 -9.76230469 1.8734375 -10.72851562 1.8203125 C-11.70498047 1.75585938 -12.68144531 1.69140625 -13.6875 1.625 C-15.16959961 1.53992188 -15.16959961 1.53992188 -16.68164062 1.453125 C-19.12182885 1.31166481 -21.56098591 1.16025726 -24 1 C-24 0.67 -24 0.34 -24 0 C-20.56296699 -0.19682269 -17.12536573 -0.38085152 -13.6875 -0.5625 C-12.71103516 -0.61857422 -11.73457031 -0.67464844 -10.72851562 -0.73242188 C-9.32182617 -0.80493164 -9.32182617 -0.80493164 -7.88671875 -0.87890625 C-7.02264404 -0.9260376 -6.15856934 -0.97316895 -5.26831055 -1.02172852 C-3 -1 -3 -1 0 0 Z " fill="#FDFA00" transform="translate(566,252)"/>
<path d="M0 0 C2.51699845 2.51699845 3.10964078 4.57554146 4 8 C3.625 10.375 3.625 10.375 3 12 C-0.69948187 8.30051813 -0.69948187 8.30051813 -2 6 C-1.3125 2.625 -1.3125 2.625 0 0 Z " fill="#2A0A95" transform="translate(267,247)"/>
<path d="M0 0 C3.2428329 3.72925783 5.5119901 8.30238735 7 13 C6.67 13.99 6.34 14.98 6 16 C4.98696238 14.27843904 3.99005152 12.54738194 3 10.8125 C2.443125 9.84957031 1.88625 8.88664063 1.3125 7.89453125 C-0.02216758 4.95111257 -0.27915461 3.18119943 0 0 Z " fill="#210AA4" transform="translate(610,242)"/>
<path d="M0 0 C0.66 0 1.32 0 2 0 C2.69848264 1.93356782 3.38344814 3.87202298 4.0625 5.8125 C4.44535156 6.89144531 4.82820313 7.97039062 5.22265625 9.08203125 C6 12 6 12 5 15 C4.15733289 13.25447527 3.32619962 11.5033792 2.5 9.75 C2.0359375 8.77546875 1.571875 7.8009375 1.09375 6.796875 C0 4 0 4 0 0 Z " fill="#1E089D" transform="translate(483,234)"/>
<path d="M0 0 C4.95 0.33 9.9 0.66 15 1 C14.67 1.66 14.34 2.32 14 3 C13.24074219 2.97679687 12.48148438 2.95359375 11.69921875 2.9296875 C10.20841797 2.90261719 10.20841797 2.90261719 8.6875 2.875 C7.70136719 2.85179687 6.71523438 2.82859375 5.69921875 2.8046875 C2.77593473 2.79317361 2.77593473 2.79317361 0 5 C-0.66 4.34 -1.32 3.68 -2 3 C-1.34 2.01 -0.68 1.02 0 0 Z " fill="#F4D10A" transform="translate(916,217)"/>
<path d="M0 0 C0.33 0.66 0.66 1.32 1 2 C-0.98 4.97 -2.96 7.94 -5 11 C-6.49788797 8.00422405 -5.90516186 6.16806651 -5 3 C-2.4375 1.125 -2.4375 1.125 0 0 Z " fill="#290D96" transform="translate(886,262)"/>
<path d="M0 0 C-2.38573379 1.89213369 -4.07175348 3.02391783 -7 4 C-7.66 4.66 -8.32 5.32 -9 6 C-9.33 4.35 -9.66 2.7 -10 1 C-3.71428571 -1.42857143 -3.71428571 -1.42857143 0 0 Z " fill="#2D0E94" transform="translate(231,215)"/>
<path d="M0 0 C1.67542976 0.28604898 3.34385343 0.61781233 5 1 C4.34 2.98 3.68 4.96 3 7 C2.01 6.34 1.02 5.68 0 5 C-0.66 5.66 -1.32 6.32 -2 7 C-1.125 1.125 -1.125 1.125 0 0 Z " fill="#2D0B91" transform="translate(467,279)"/>
<path d="M0 0 C6.70459519 4.77899344 6.70459519 4.77899344 7.9375 9.875 C7.958125 10.90625 7.97875 11.9375 8 13 C0 3.28571429 0 3.28571429 0 0 Z " fill="#270A9A" transform="translate(919,264)"/>
<path d="M0 0 C0.609375 1.84375 0.609375 1.84375 1 4 C-0.75 6.5 -0.75 6.5 -3 9 C-4.00573778 10.32901064 -5.00795408 11.66073801 -6 13 C-5.51675181 7.84535266 -2.81389239 4.18449681 0 0 Z " fill="#270B9A" transform="translate(260,247)"/>
<path d="M0 0 C0.33 0.66 0.66 1.32 1 2 C0.67 2.99 0.34 3.98 0 5 C1.32 5.33 2.64 5.66 4 6 C3.67 6.99 3.34 7.98 3 9 C2.34 8.67 1.68 8.34 1 8 C1 7.34 1 6.68 1 6 C0.34 6 -0.32 6 -1 6 C-1.66 7.32 -2.32 8.64 -3 10 C-2.69201674 8.51988629 -2.378482 7.04092675 -2.0625 5.5625 C-1.88847656 4.73878906 -1.71445312 3.91507813 -1.53515625 3.06640625 C-1 1 -1 1 0 0 Z " fill="#250798" transform="translate(482,239)"/>
<path d="M0 0 C1 3 1 3 0.00390625 5.48046875 C-0.47175781 6.37378906 -0.94742188 7.26710937 -1.4375 8.1875 C-1.91058594 9.08855469 -2.38367188 9.98960937 -2.87109375 10.91796875 C-3.24363281 11.60503906 -3.61617187 12.29210937 -4 13 C-4.66 13 -5.32 13 -6 13 C-4.58707905 8.1725201 -2.57025846 4.2837641 0 0 Z " fill="#F6E309" transform="translate(655,224)"/>
<path d="M0 0 C0.33 0.99 0.66 1.98 1 3 C-2.96 3 -6.92 3 -11 3 C-6.577168 -0.317124 -5.28089024 -0.30466674 0 0 Z " fill="#F3D808" transform="translate(640,280)"/>
<path d="M0 0 C2.475 0.99 2.475 0.99 5 2 C5 2.99 5 3.98 5 5 C3.35 5.33 1.7 5.66 0 6 C-0.38218767 4.34385343 -0.71395102 2.67542976 -1 1 C-0.67 0.67 -0.34 0.34 0 0 Z " fill="#F6D706" transform="translate(193,313)"/>
<path d="M0 0 C5.35048061 0.37328935 7.50912907 1.9957657 11 6 C7.61121488 6 6.60242783 5.35638802 3.8125 3.5625 C2.73935547 2.88380859 2.73935547 2.88380859 1.64453125 2.19140625 C1.10183594 1.79824219 0.55914063 1.40507812 0 1 C0 0.67 0 0.34 0 0 Z " fill="#EAD40F" transform="translate(733,230)"/>
<path d="M0 0 C0.33 0.99 0.66 1.98 1 3 C0.00390625 4.82421875 0.00390625 4.82421875 -1.4375 6.6875 C-1.91058594 7.31011719 -2.38367188 7.93273437 -2.87109375 8.57421875 C-3.24363281 9.04472656 -3.61617187 9.51523437 -4 10 C-5 7 -5 7 -4 4 C-2.70644173 2.62804426 -1.37701298 1.28817344 0 0 Z " fill="#290E97" transform="translate(874,280)"/>
<path d="M0 0 C3.80984844 2.77079887 4.06840752 6.62868145 5 11 C1.63408573 8.27521226 0.55773724 4.93143208 -1 1 C-0.67 0.67 -0.34 0.34 0 0 Z " fill="#F9EB03" transform="translate(623,266)"/>
<path d="M0 0 C2.46800047 1.15173355 4.04783565 2.04783565 6 4 C5.67 4.99 5.34 5.98 5 7 C4.01 6.01 3.02 5.02 2 4 C1.01 4.33 0.02 4.66 -1 5 C-0.67 3.35 -0.34 1.7 0 0 Z " fill="#FDEB02" transform="translate(268,236)"/>
<path d="M0 0 C2.18975773 3.28463659 2.99806563 6.20696275 4 10 C3.01 10 2.02 10 1 10 C0.67 6.7 0.34 3.4 0 0 Z " fill="#F6E00A" transform="translate(511,268)"/>
<path d="M0 0 C0.33 0.66 0.66 1.32 1 2 C0.67 2.66 0.34 3.32 0 4 C-0.66 4 -1.32 4 -2 4 C-2.33 4.66 -2.66 5.32 -3 6 C-3 5.34 -3 4.68 -3 4 C-4.32 4.33 -5.64 4.66 -7 5 C-4.87219421 2.65941363 -2.88437779 1.29299694 0 0 Z " fill="#2C0E96" transform="translate(746,287)"/>
<path d="M0 0 C2.97 0.33 5.94 0.66 9 1 C7.515 2.485 7.515 2.485 6 4 C5.67 3.34 5.34 2.68 5 2 C2.47266765 1.34444881 2.47266765 1.34444881 0 1 C0 0.67 0 0.34 0 0 Z " fill="#F2D80B" transform="translate(260,234)"/>
<path d="M0 0 C1.0013988 3.00419641 1.51421457 5.87709365 2 9 C-0.25245881 6.31158141 -1.88213958 4.35358125 -3 1 C-2.01 0.67 -1.02 0.34 0 0 Z " fill="#EFDC0C" transform="translate(813,274)"/>
<path d="M0 0 C2.7972908 2.06756277 3.02692273 3.14440371 3.6875 6.6875 C3.790625 7.780625 3.89375 8.87375 4 10 C0 4 0 4 0 0 Z " fill="#2C1098" transform="translate(560,273)"/>
<path d="M0 0 C0.66 0.99 1.32 1.98 2 3 C1.125 6.1875 1.125 6.1875 0 9 C-2 7 -2 7 -2.125 3.875 C-2.08375 2.92625 -2.0425 1.9775 -2 1 C-1.34 0.67 -0.68 0.34 0 0 Z " fill="#421181" transform="translate(242,255)"/>
</svg>
